<?xml version="1.0" standalone="no"?><!DOCTYPE svg PUBLIC "-//W3C//DTD SVG 1.1//EN" "http://www.w3.org/Graphics/SVG/1.1/DTD/svg11.dtd"><svg t="1758199533386" class="icon" viewBox="0 0 1024 1024" version="1.1" xmlns="http://www.w3.org/2000/svg" p-id="8733" xmlns:xlink="http://www.w3.org/1999/xlink" width="200" height="200"><path d="M164.3008 207.3216v481.408c0 30.592 24.8064 55.5264 55.296 55.6032H804.48c30.4512-0.0768 55.232-25.024 55.2192-55.6288V207.2704c0-30.592-24.8064-55.5264-55.296-55.6032H219.52c-30.4512 0.0768-55.232 25.024-55.2192 55.6288v0.0256zM804.544 793.6H219.52C161.9712 793.472 115.2 746.4192 115.2 688.7296v-481.408C115.1488 149.6192 161.9328 102.5536 219.456 102.4H804.48c57.5488 0.128 104.32 47.1808 104.32 104.8704v481.408c0.0512 57.7152-46.7328 104.7808-104.256 104.9216z" fill="#2D3E50" p-id="8734"></path><path d="M657.1904 268.3776l1.4592 1.408c19.9424 19.8016 51.1232 66.8288 71.5008 109.7216 34.624 72.8704 46.08 142.0544 31.936 204.608l-1.0752 4.5312-0.5504 1.6256-0.7424 1.9968c-0.2944 0.7552-0.6272 1.5488-0.9984 2.4064l-1.2032 2.6752a90.7776 90.7776 0 0 1-9.6 16.0256c-9.3184 12.3648-20.8 20.7232-34.5472 24.512-28.032 7.5264-61.7728-5.1456-99.3664-36.2496l-1.9072-1.6128-0.5632-0.448-5.0816-3.648c-32.7296-23.8336-59.52-50.2528-66.688-67.584-13.44-32.2304-17.7024-73.4976-13.2864-120.5632 3.0208-32.1664 10.3424-65.2416 17.0624-77.2992l0.64-1.0496c11.3536-30.3488 23.3216-49.92 37.504-59.9808l3.0336-2.048c23.552-15.3984 54.7968-15.3344 72.4736 0.9728z m-216.2816 0.1152l1.5744 1.0752c14.1184 10.112 26.0352 29.632 37.248 59.6608l0.1664 0.3072 0.5632 0.96c6.72 12.0832 14.0416 45.1328 17.0624 77.2992 4.416 47.0528 0.1536 88.32-13.2608 120.5376-7.5648 18.2528-36.8128 46.5536-71.7696 71.232l-2.5216 2.0992c-37.5552 31.104-71.3216 43.776-99.4816 36.1984-13.6192-3.7504-25.088-12.1088-34.3936-24.4608a90.8288 90.8288 0 0 1-9.6256-16.0512l-1.2032-2.688a69.2992 69.2992 0 0 1-1.7536-4.4288l-0.5632-1.7152-1.0368-4.4032c-14.144-62.5408-2.688-131.7248 31.936-204.5952 19.968-42.0352 50.2144-87.9104 70.5408-108.7488l2.432-2.3936c18.112-16.7296 50.4448-16.32 74.0864 0.1152zM398.4128 294.4h-1.4208c-5.632 0.1664-10.5728 1.8304-13.9776 4.736l-0.8192 0.7424-0.9984 1.0624c-14.8864 16.384-39.6416 55.0912-57.2288 95.1552-25.344 57.728-35.8016 114.8544-25.8432 167.2576l0.64 3.2 0.768 3.6096 0.3456 1.0112c0.128 0.384 0.3072 0.832 0.4992 1.3312l0.3072 0.7808 0.7552 1.792c1.6256 3.712 3.648 7.424 6.08 10.88 5.0688 7.2192 11.2128 12.3392 18.496 14.4896 2.1504 0.6144 4.4288 0.9856 6.784 1.1136l1.8048 0.0384 1.344-0.0256c14.8096-0.5632 33.28-10.048 53.8368-27.7888l2.1248-1.8688 2.1376-1.92 1.024-0.8576 2.944-2.2656 3.7504-2.9568c22.4384-17.9584 43.3408-39.168 47.8336-50.7776 10.3296-26.56 13.1328-61.184 9.9584-98.7264l-0.4096-4.5568c-2.4704-25.1136-7.6544-49.7408-11.3408-57.7536l-0.3328-0.6784-0.6784-1.2544-0.6272-1.3056a41.2672 41.2672 0 0 1-0.32-0.7424c-7.6416-22.0416-15.8976-37.7344-23.9872-44.6464l-0.896-0.7296-2.5344-1.8304a37.7216 37.7216 0 0 0-16.896-6.3104l-1.7536-0.1536-1.3696-0.0512z m244.352 6.5024l-0.896-0.9728c-7.5264-7.424-23.0272-7.424-35.2384 0.3072l-1.3056 0.8576-2.2144 1.6128c-8.1024 6.2464-16.384 21.376-24.1536 43.1104l-0.8576 2.4448-0.6528 1.4336-1.024 1.92c-3.712 7.36-9.408 34.2144-11.8016 60.672-3.264 36.0448-1.0496 69.6704 8.0384 96.1024l0.96 2.7008 0.7808 2.048c0.384 0.9728 0.8576 2.0096 1.4592 3.1104 0.8192 1.5104 1.8304 3.136 3.0336 4.864l0.9472 1.3184 1.7664 2.3296 1.216 1.536 0.9856 1.1904 1.7536 2.048 1.0624 1.2288 3.328 3.6352 2.6496 2.7776 2.112 2.1504c2.304 2.304 4.7232 4.6464 7.2576 7.0016l2.56 2.3808 2.7776 2.5216c1.7792 1.5872 3.5712 3.1616 5.376 4.7104l2.7008 2.304 4.224 3.52 3.8784 3.1232 1.8816 1.4848 3.648 2.816 0.9728 0.832 1.92 1.728c21.4144 18.9824 40.6528 29.1456 55.9488 29.824l1.5232 0.0256 1.3184-0.0256c2.56-0.0896 5.0176-0.4608 7.3088-1.1264 7.296-2.1504 13.44-7.2704 18.5216-14.4896 2.432-3.456 4.4416-7.168 6.08-10.88l0.7424-1.792c0.5504-1.3568 0.9216-2.4064 1.1136-3.008 0.9472-4.16 1.7536-8.3712 2.432-12.608l0.64-4.2496 0.3456-2.5984 0.4736-3.968 0.2432-2.3808 0.3072-3.5456 0.256-3.6096 0.1664-2.944 0.1664-4.352 0.0896-4.5568 0.0128-3.8656-0.0256-2.5856-0.192-6.208-0.2304-4.416-0.2048-3.072-0.2816-3.5072-0.256-2.816-0.4864-4.608-0.1536-1.3184-0.6272-4.7872-0.8576-5.7984-0.2176-1.3696-0.7936-4.608-1.1392-5.9136-1.024-4.864c-2.688-12.3008-6.144-24.6656-10.3424-37.0304l-1.8432-5.2992-2.368-6.464-1.92-4.992c-1.152-2.944-2.3424-5.888-3.5712-8.832l-1.856-4.3904-3.0976-7.0016-2.0608-4.4928-0.8064-1.7152-2.4832-5.2096a458.3936 458.3936 0 0 0-5.2736-10.4704l-2.7136-5.1584-3.5072-6.4384c-2.2784-4.096-4.608-8.1408-6.9504-12.0832l-2.0736-3.456-2.0736-3.392-3.0208-4.7872-2.7904-4.3264-1.4208-2.176-3.5328-5.248-2.7392-3.9296-2.5728-3.5968-1.2416-1.6896c-1.4208-1.9456-2.816-3.776-4.096-5.44l-1.28-1.6128-2.5728-3.1616-1.4464-1.664-0.6784-0.768-0.9216-0.9728 0.9216 0.9728z" fill="#1378BC" p-id="8735"></path><path d="M90.4448 871.0272c-14.592 0-26.4448 11.3152-26.4448 25.2928C64 910.272 75.84 921.6 90.4448 921.6h842.0864c14.592 0 26.432-11.3152 26.432-25.2672 0-13.952-11.8272-25.2672-26.432-25.2672L90.4448 871.04zM554.944 332.8c-2.5088 0-4.544 6.144-4.544 13.7472 0 7.5904 2.0352 13.7344 4.544 13.7344h144.512c2.5088 0 4.544-6.144 4.544-13.7216 0-7.5904-2.0352-13.7344-4.5312-13.7344L554.944 332.8zM555.3152 396.8c-2.7136 0-4.9152 6.144-4.9152 13.7472 0 7.5904 2.2016 13.7344 4.9152 13.7344h156.5696c2.7136 0 4.9152-6.144 4.9152-13.7216 0-7.5904-2.2016-13.7344-4.9152-13.7344L555.3152 396.8zM556.0704 460.8c-3.1232 0-5.6704 6.144-5.6704 13.7472 0 7.5904 2.5472 13.7344 5.6704 13.7344h180.6592c3.136 0 5.6704-6.144 5.6704-13.7216 0-7.5904-2.5344-13.7344-5.6704-13.7344L556.0704 460.8zM556.0704 524.8c-3.1232 0-5.6704 6.144-5.6704 13.7472 0 7.5904 2.5472 13.7344 5.6704 13.7344h180.6592c3.136 0 5.6704-6.144 5.6704-13.7216 0-7.5904-2.5344-13.7344-5.6704-13.7344L556.0704 524.8zM324.544 331.5456c-2.5088 0-4.544 6.144-4.544 13.7472 0 7.5904 2.0352 13.7344 4.544 13.7344h144.512c2.5088 0 4.544-6.144 4.544-13.7216 0-7.5904-2.0352-13.7344-4.5312-13.7344l-144.5248-0.0256zM312.1152 396.8c-2.7136 0-4.9152 6.144-4.9152 13.7472 0 7.5904 2.2016 13.7344 4.9152 13.7344h156.5696c2.7136 0 4.9152-6.144 4.9152-13.7216 0-7.5904-2.2016-13.7344-4.9152-13.7344L312.1152 396.8zM287.2704 460.8c-3.1232 0-5.6704 6.144-5.6704 13.7472 0 7.5904 2.5472 13.7344 5.6704 13.7344h180.6592c3.136 0 5.6704-6.144 5.6704-13.7216 0-7.5904-2.5344-13.7344-5.6704-13.7344L287.2704 460.8zM287.2704 524.8c-3.1232 0-5.6704 6.144-5.6704 13.7472 0 7.5904 2.5472 13.7344 5.6704 13.7344h180.6592c3.136 0 5.6704-6.144 5.6704-13.7216 0-7.5904-2.5344-13.7344-5.6704-13.7344L287.2704 524.8z" fill="#1378BC" p-id="8736"></path></svg>